<svg preserveAspectRatio="none" width="100%" height="100%" overflow="visible" style="display: block;" viewBox="0 0 9.2753 11.8878" fill="none" xmlns="http://www.w3.org/2000/svg">
<g id="Group">
<path id="Vector" fill-rule="evenodd" clip-rule="evenodd" d="M3.70651 1.66784H0.317913C0.233537 1.66784 0.152925 1.63458 0.0934105 1.57618C0.0338956 1.51777 0 1.43867 0 1.35587C0 1.05719 0 0.609928 0 0.311256C0 0.228455 0.0338956 0.149348 0.0934105 0.0909446C0.152925 0.0325408 0.233537 0 0.317913 0C1.7425 0 7.53353 0 8.95812 0C9.0425 0 9.12311 0.0325408 9.18262 0.0909446C9.24214 0.149348 9.2753 0.228455 9.2753 0.311256C9.2753 0.609928 9.2753 1.05719 9.2753 1.35587C9.2753 1.43867 9.24214 1.51777 9.18262 1.57618C9.12311 1.63458 9.0425 1.66784 8.95812 1.66784C8.05711 1.66784 5.55072 1.66784 5.55072 1.66784V11.5758C5.55072 11.6586 5.51756 11.7377 5.45804 11.7961C5.39853 11.8545 5.31794 11.8878 5.23356 11.8878C4.89531 11.8878 4.36268 11.8878 4.02442 11.8878C3.94005 11.8878 3.85944 11.8545 3.79992 11.7961C3.74041 11.7377 3.70651 11.6586 3.70651 11.5758C3.70651 9.86287 3.70651 1.66784 3.70651 1.66784Z" fill="var(--fill-0, #232321)"/>
</g>
</svg>
