<svg preserveAspectRatio="none" width="100%" height="100%" overflow="visible" style="display: block;" viewBox="0 0 10.6856 11.8878" fill="none" xmlns="http://www.w3.org/2000/svg">
<g id="Group">
<path id="Vector" fill-rule="evenodd" clip-rule="evenodd" d="M10.6856 5.89067C10.6856 6.82513 10.5198 7.662 10.1884 8.40129C9.85689 9.14058 9.39281 9.77045 8.79615 10.2909C8.1995 10.8114 7.5034 11.2076 6.70785 11.4797C5.91231 11.7517 5.04445 11.8878 4.10427 11.8878H0.317913C0.233537 11.8878 0.152925 11.8545 0.0934105 11.7961C0.0338956 11.7377 0 11.6586 0 11.5758V0.311256C0 0.228455 0.0338956 0.149348 0.0934105 0.0909446C0.152925 0.0325408 0.233537 0 0.317913 0H4.19467C5.49646 0 6.63251 0.245445 7.60283 0.736333C8.57315 1.22722 9.32951 1.91328 9.87193 2.79451C10.4143 3.67574 10.6856 4.7078 10.6856 5.89067ZM8.7871 5.89067C8.7871 5.05083 8.59426 4.3145 8.20854 3.68167C7.82282 3.04883 7.28642 2.55499 6.59936 2.20013C5.9123 1.84527 5.11075 1.66784 4.19467 1.66784H1.84421V10.2377H4.10427C4.76722 10.2377 5.38196 10.1371 5.94848 9.93604C6.515 9.73496 7.0122 9.45106 7.4401 9.08438C7.86801 8.71769 8.19951 8.26229 8.43456 7.71818C8.6696 7.17406 8.7871 6.5649 8.7871 5.89067Z" fill="var(--fill-0, #232321)"/>
</g>
</svg>
