<svg preserveAspectRatio="none" width="100%" height="100%" overflow="visible" style="display: block;" viewBox="0 0 1.84421 11.8878" fill="none" xmlns="http://www.w3.org/2000/svg">
<g id="Group">
<path id="Vector" fill-rule="evenodd" clip-rule="evenodd" d="M0 0.311256C0 0.228455 0.0338956 0.149348 0.0934105 0.0909446C0.152925 0.0325408 0.233537 0 0.317913 0C0.656169 0 1.18878 0 1.52703 0C1.61141 0 1.69202 0.0325408 1.75153 0.0909446C1.81105 0.149348 1.84421 0.228455 1.84421 0.311256C1.84421 1.98574 1.84421 9.90131 1.84421 11.5758C1.84421 11.6586 1.81105 11.7377 1.75153 11.7961C1.69202 11.8545 1.61141 11.8878 1.52703 11.8878H0.317913C0.233537 11.8878 0.152925 11.8545 0.0934105 11.7961C0.0338956 11.7377 0 11.6586 0 11.5758V0.311256Z" fill="var(--fill-0, #232321)"/>
</g>
</svg>
