<svg preserveAspectRatio="none" width="100%" height="100%" overflow="visible" style="display: block;" viewBox="0 0 10.3781 11.8877" fill="none" xmlns="http://www.w3.org/2000/svg">
<g id="Group">
<path id="Vector" fill-rule="evenodd" clip-rule="evenodd" d="M1.75372 1.49905V11.5762C1.75372 11.6587 1.72022 11.7381 1.66067 11.7966C1.60112 11.8549 1.52027 11.8877 1.43611 11.8877C1.11896 11.8877 0.63476 11.8877 0.317618 11.8877C0.233449 11.8877 0.152606 11.8549 0.0930522 11.7966C0.0334988 11.7381 0 11.6587 0 11.5762V0.311731C0 0.228989 0.0334988 0.149842 0.0930522 0.0912896C0.152606 0.0329632 0.233449 0 0.317618 0H2.67587C2.79196 0 2.89867 0.0621237 2.95441 0.162047C3.68699 1.47507 8.62439 10.3249 8.62439 10.3249C8.62439 10.3249 8.62439 2.03553 8.62439 0.311731C8.62439 0.139691 8.76668 0 8.94201 0C9.25915 0 9.74335 0 10.0605 0C10.1447 0 10.2255 0.0329632 10.2851 0.0912896C10.3446 0.149842 10.3781 0.228989 10.3781 0.311731C10.3781 1.98624 10.3781 9.90143 10.3781 11.5762C10.3781 11.7482 10.2358 11.8877 10.0605 11.8877C9.46432 11.8877 8.19471 11.8877 7.71527 11.8877C7.59902 11.8877 7.492 11.8256 7.43642 11.7254C6.70336 10.4063 1.75372 1.49905 1.75372 1.49905Z" fill="var(--fill-0, #232321)"/>
</g>
</svg>
