<svg preserveAspectRatio="none" width="100%" height="100%" overflow="visible" style="display: block;" viewBox="0 0 5.20057 11.8878" fill="none" xmlns="http://www.w3.org/2000/svg">
<g id="Group">
<path id="Vector" fill-rule="evenodd" clip-rule="evenodd" d="M0.0860911 5.09222C0.197587 4.6346 0.397988 4.17921 0.688029 3.72602C0.688029 3.72602 2.63468 0.819134 3.08895 0.140467C3.14772 0.0524913 3.24791 0 3.35488 0C3.65397 0 4.28605 0 4.75991 0C4.87668 0 4.98441 0.0628509 5.0394 0.164133C5.09515 0.265416 5.08913 0.388865 5.02358 0.484233C4.2514 1.62126 2.38758 4.36478 2.38758 4.36478C2.19472 4.66049 2.05009 4.92663 1.95366 5.1632C1.85723 5.39977 1.80902 5.63634 1.80902 5.87291C1.80902 6.08582 1.85422 6.31353 1.94462 6.55602C2.03503 6.79851 2.18267 7.07352 2.38758 7.38106C2.38758 7.38106 4.34707 10.2369 5.14638 11.4021C5.21192 11.4974 5.2187 11.6209 5.16295 11.7222C5.10796 11.8242 5.00022 11.8878 4.8827 11.8878C4.39829 11.8878 3.74739 11.8878 3.44303 11.8878C3.33756 11.8878 3.23814 11.836 3.17938 11.7495C2.71606 11.0709 0.7061 8.12626 0.7061 8.12626C0.465027 7.74775 0.284221 7.37515 0.163684 7.00846C0.134303 6.91901 0.108697 6.83028 0.0868498 6.74231C-0.0253999 6.19228 -0.0321854 5.64225 0.0860911 5.09222Z" fill="var(--fill-0, #232321)"/>
</g>
</svg>
