<svg preserveAspectRatio="none" width="100%" height="100%" overflow="visible" style="display: block;" viewBox="0 0 8.47976 11.8878" fill="none" xmlns="http://www.w3.org/2000/svg">
<g id="Group">
<path id="Vector" fill-rule="evenodd" clip-rule="evenodd" d="M0.317913 11.8878C0.233537 11.8878 0.152925 11.8545 0.0934105 11.7961C0.0338956 11.7377 0 11.6586 0 11.5758C0 9.90131 0 1.98574 0 0.311256C0 0.139001 0.142382 0 0.317913 0C1.64156 0 6.7124 0 8.03604 0C8.21157 0 8.3532 0.139001 8.3532 0.311256C8.3532 0.605493 8.3532 1.04387 8.3532 1.33811C8.3532 1.51036 8.21157 1.65009 8.03604 1.65009C6.72973 1.65009 1.84421 1.65009 1.84421 1.65009V5.10998H7.67442C7.84995 5.10998 7.99158 5.24896 7.99158 5.42121C7.99158 5.71545 7.99158 6.15385 7.99158 6.44809C7.99158 6.62034 7.84995 6.76006 7.67442 6.76006C6.41557 6.76006 1.84421 6.76006 1.84421 6.76006V10.2377H8.1626C8.33814 10.2377 8.47976 10.3767 8.47976 10.5489C8.47976 10.8432 8.47976 11.2816 8.47976 11.5758C8.47976 11.6586 8.4466 11.7377 8.38708 11.7961C8.32757 11.8545 8.24698 11.8878 8.1626 11.8878C6.82465 11.8878 1.65587 11.8878 0.317913 11.8878Z" fill="var(--fill-0, #232321)"/>
</g>
</svg>
