<svg preserveAspectRatio="none" width="100%" height="100%" overflow="visible" style="display: block;" viewBox="0 0 22 22" fill="none" xmlns="http://www.w3.org/2000/svg">
<g id="Frame">
<path id="Vector" d="M11 10C11.4596 10 11.9148 9.90947 12.3394 9.73358C12.764 9.55769 13.1499 9.29988 13.4749 8.97487C13.7999 8.64987 14.0577 8.26403 14.2336 7.83939C14.4095 7.41475 14.5 6.95963 14.5 6.5C14.5 6.04037 14.4095 5.58525 14.2336 5.16061C14.0577 4.73597 13.7999 4.35013 13.4749 4.02513C13.1499 3.70012 12.764 3.44231 12.3394 3.26642C11.9148 3.09053 11.4596 3 11 3C10.0717 3 9.1815 3.36875 8.52513 4.02513C7.86875 4.6815 7.5 5.57174 7.5 6.5C7.5 7.42826 7.86875 8.3185 8.52513 8.97487C9.1815 9.63125 10.0717 10 11 10ZM4 19V18C4 15.24 7.13 13 11 13C14.87 13 18 15.24 18 18V19H4ZM3 11C2.33696 11 1.70107 10.7366 1.23223 10.2678C0.763392 9.79893 0.5 9.16304 0.5 8.5C0.5 7.83696 0.763392 7.20107 1.23223 6.73223C1.70107 6.26339 2.33696 6 3 6C3.66304 6 4.29893 6.26339 4.76777 6.73223C5.23661 7.20107 5.5 7.83696 5.5 8.5C5.5 9.16304 5.23661 9.79893 4.76777 10.2678C4.29893 10.7366 3.66304 11 3 11ZM3 13C1.4 13 0 13.7 0 15.5V17H3V16C3 14.5 3.6 13.1 4.7 12H3V13ZM19 11C19.663 11 20.2989 10.7366 20.7678 10.2678C21.2366 9.79893 21.5 9.16304 21.5 8.5C21.5 7.83696 21.2366 7.20107 20.7678 6.73223C20.2989 6.26339 19.663 6 19 6C18.337 6 17.7011 6.26339 17.2322 6.73223C16.7634 7.20107 16.5 7.83696 16.5 8.5C16.5 9.16304 16.7634 9.79893 17.2322 10.2678C17.7011 10.7366 18.337 11 19 11ZM19 13C18.4 13 17.9 13.1 17.3 13.3C18.4 14.4 19 15.8 19 17.3V18.3H22V16.8C22 15 20.6 14.3 19 14V13Z" fill="var(--fill-0, #1F2326)"/>
</g>
</svg>
