<svg preserveAspectRatio="none" width="100%" height="100%" overflow="visible" style="display: block;" viewBox="0 0 22 22" fill="none" xmlns="http://www.w3.org/2000/svg">
<g id="Frame">
<path id="Vector" d="M8 11C9.06087 11 10.0783 10.5786 10.8284 9.82843C11.5786 9.07828 12 8.06087 12 7C12 5.93913 11.5786 4.92172 10.8284 4.17157C10.0783 3.42143 9.06087 3 8 3C6.93913 3 5.92172 3.42143 5.17157 4.17157C4.42143 4.92172 4 5.93913 4 7C4 8.06087 4.42143 9.07828 5.17157 9.82843C5.92172 10.5786 6.93913 11 8 11ZM8 13C4 13 1 15.5 1 18.5V20H15V18.5C15 15.5 12 13 8 13ZM16 11C16.7956 11 17.5587 10.6839 18.1213 10.1213C18.6839 9.55871 19 8.79565 19 8C19 7.20435 18.6839 6.44129 18.1213 5.87868C17.5587 5.31607 16.7956 5 16 5C15.2044 5 14.4413 5.31607 13.8787 5.87868C13.3161 6.44129 13 7.20435 13 8C13 8.79565 13.3161 9.55871 13.8787 10.1213C14.4413 10.6839 15.2044 11 16 11ZM16 13C15.5 13 15 13.05 14.5 13.15C16 14.3 17 16 17 18V20H21V18.5C21 16 18.8 14 16 14V13Z" fill="var(--fill-0, #1F2326)"/>
</g>
</svg>
