<svg preserveAspectRatio="none" width="100%" height="100%" overflow="visible" style="display: block;" viewBox="0 0 22 22" fill="none" xmlns="http://www.w3.org/2000/svg">
<g id="Frame">
<path id="Vector" fill-rule="evenodd" clip-rule="evenodd" d="M11 21C11 21 4 15.14 4 10C4 9.08075 4.18106 8.1705 4.53284 7.32122C4.88463 6.47194 5.40024 5.70026 6.05025 5.05025C6.70026 4.40024 7.47194 3.88463 8.32122 3.53284C9.17049 3.18106 10.0807 3 11 3C11.9193 3 12.8295 3.18106 13.6788 3.53284C14.5281 3.88463 15.2997 4.40024 15.9497 5.05025C16.5998 5.70026 17.1154 6.47194 17.4672 7.32122C17.8189 8.1705 18 9.08075 18 10C18 15.14 11 21 11 21ZM11 13C11.7956 13 12.5587 12.6839 13.1213 12.1213C13.6839 11.5587 14 10.7956 14 10C14 9.20435 13.6839 8.44129 13.1213 7.87868C12.5587 7.31607 11.7956 7 11 7C10.2044 7 9.44129 7.31607 8.87868 7.87868C8.31607 8.44129 8 9.20435 8 10C8 10.7956 8.31607 11.5587 8.87868 12.1213C9.44129 12.6839 10.2044 13 11 13Z" fill="var(--fill-0, #1F2326)"/>
</g>
</svg>
