<svg preserveAspectRatio="none" width="100%" height="100%" overflow="visible" style="display: block;" viewBox="0 0 22 22" fill="none" xmlns="http://www.w3.org/2000/svg">
<g id="Frame">
<path id="Vector" d="M5.5 13H2.5C2.22386 13 2 13.2239 2 13.5V19.5C2 19.7761 2.22386 20 2.5 20H5.5C5.77614 20 6 19.7761 6 19.5V13.5C6 13.2239 5.77614 13 5.5 13Z" fill="var(--fill-0, #1F2326)"/>
<path id="Vector_2" d="M12.5 8H9.5C9.22386 8 9 8.22386 9 8.5V19.5C9 19.7761 9.22386 20 9.5 20H12.5C12.7761 20 13 19.7761 13 19.5V8.5C13 8.22386 12.7761 8 12.5 8Z" fill="var(--fill-0, #1F2326)"/>
<path id="Vector_3" d="M19.5 3H16.5C16.2239 3 16 3.22386 16 3.5V19.5C16 19.7761 16.2239 20 16.5 20H19.5C19.7761 20 20 19.7761 20 19.5V3.5C20 3.22386 19.7761 3 19.5 3Z" fill="var(--fill-0, #1F2326)"/>
</g>
</svg>
