<svg preserveAspectRatio="none" width="100%" height="100%" overflow="visible" style="display: block;" viewBox="0 0 22 22" fill="none" xmlns="http://www.w3.org/2000/svg">
<g id="Frame">
<path id="Vector" fill-rule="evenodd" clip-rule="evenodd" d="M4 10V7C4 5.14348 4.7375 3.36301 6.05025 2.05025C7.36301 0.737498 9.14348 1.04308e-07 11 1.04308e-07C12.8565 1.04308e-07 14.637 0.737498 15.9497 2.05025C17.2625 3.36301 18 5.14348 18 7V10H19C19.5304 10 20.0391 10.2107 20.4142 10.5858C20.7893 10.9609 21 11.4696 21 12V19C21 19.5304 20.7893 20.0391 20.4142 20.4142C20.0391 20.7893 19.5304 21 19 21H3C2.46957 21 1.96086 20.7893 1.58579 20.4142C1.21071 20.0391 1 19.5304 1 19V12C1 11.4696 1.21071 10.9609 1.58579 10.5858C1.96086 10.2107 2.46957 10 3 10H4ZM6 10H16V7C16 5.67392 15.4732 4.40215 14.5355 3.46447C13.5979 2.52678 12.3261 2 11 2C9.67392 2 8.40215 2.52678 7.46447 3.46447C6.52678 4.40215 6 5.67392 6 7V10ZM11 14C10.6022 14 10.2206 14.158 9.93934 14.4393C9.65804 14.7206 9.5 15.1022 9.5 15.5C9.5 15.8978 9.65804 16.2794 9.93934 16.5607C10.2206 16.842 10.6022 17 11 17C11.3978 17 11.7794 16.842 12.0607 16.5607C12.342 16.2794 12.5 15.8978 12.5 15.5C12.5 15.1022 12.342 14.7206 12.0607 14.4393C11.7794 14.158 11.3978 14 11 14Z" fill="var(--fill-0, #1F2326)"/>
</g>
</svg>
