<?xml version="1.0" encoding="UTF-8" standalone="no"?>
<svg width="100%" height="100%" viewBox="0 0 69 69" version="1.1" xmlns="http://www.w3.org/2000/svg" xmlns:xlink="http://www.w3.org/1999/xlink" xml:space="preserve" style="fill-rule:evenodd;clip-rule:evenodd;stroke-linejoin:round;stroke-miterlimit:2;">
    <g transform="matrix(1,0,0,1,-16605.044969,-6901.904227)">
        <g transform="matrix(0.890963,0,0,4.684363,15535.571615,-6.468086)">
            <g transform="matrix(0.480011,0,0,0.480011,625.789469,770.522989)">
                <g transform="matrix(-6.561447,0,0,1.247983,4209.991652,1058.986636)">
                    <path d="M452.409,338.068C452.557,337.449 452.823,336.833 453.208,336.22C453.208,336.22 455.792,332.288 456.395,331.37C456.473,331.251 456.606,331.18 456.748,331.18C457.145,331.18 457.984,331.18 458.613,331.18C458.768,331.18 458.911,331.265 458.984,331.402C459.058,331.539 459.05,331.706 458.963,331.835C457.938,333.373 455.464,337.084 455.464,337.084C455.208,337.484 455.016,337.844 454.888,338.164C454.76,338.484 454.696,338.804 454.696,339.124C454.696,339.412 454.756,339.72 454.876,340.048C454.996,340.376 455.192,340.748 455.464,341.164C455.464,341.164 458.065,345.027 459.126,346.603C459.213,346.732 459.222,346.899 459.148,347.036C459.075,347.174 458.932,347.26 458.776,347.26C458.133,347.26 457.269,347.26 456.865,347.26C456.725,347.26 456.593,347.19 456.515,347.073C455.9,346.155 453.232,342.172 453.232,342.172C452.912,341.66 452.672,341.156 452.512,340.66C452.473,340.539 452.439,340.419 452.41,340.3C452.261,339.556 452.252,338.812 452.409,338.068Z" style="fill:rgb(210,204,196);"/>
                </g>
                <g transform="matrix(-0,1.247983,6.561447,0,-949.014537,924.427783)">
                    <path d="M452.409,338.068C452.557,337.449 452.823,336.833 453.208,336.22C453.208,336.22 455.792,332.288 456.395,331.37C456.473,331.251 456.606,331.18 456.748,331.18C457.145,331.18 457.984,331.18 458.613,331.18C458.768,331.18 458.911,331.265 458.984,331.402C459.058,331.539 459.05,331.706 458.963,331.835C457.938,333.373 455.464,337.084 455.464,337.084C455.208,337.484 455.016,337.844 454.888,338.164C454.76,338.484 454.696,338.804 454.696,339.124C454.696,339.412 454.756,339.72 454.876,340.048C454.996,340.376 455.192,340.748 455.464,341.164C455.464,341.164 458.065,345.027 459.126,346.603C459.213,346.732 459.222,346.899 459.148,347.036C459.075,347.174 458.932,347.26 458.776,347.26C458.133,347.26 457.269,347.26 456.865,347.26C456.725,347.26 456.593,347.19 456.515,347.073C455.9,346.155 453.232,342.172 453.232,342.172C452.912,341.66 452.672,341.156 452.512,340.66C452.473,340.539 452.439,340.419 452.41,340.3C452.261,339.556 452.252,338.812 452.409,338.068Z" style="fill:rgb(210,204,196);"/>
                </g>
                <g transform="matrix(6.561447,0,0,1.247983,-1656.476934,1058.986636)">
                    <path d="M452.409,338.068C452.557,337.449 452.823,336.833 453.208,336.22C453.208,336.22 455.792,332.288 456.395,331.37C456.473,331.251 456.606,331.18 456.748,331.18C457.145,331.18 457.984,331.18 458.613,331.18C458.768,331.18 458.911,331.265 458.984,331.402C459.058,331.539 459.05,331.706 458.963,331.835C457.938,333.373 455.464,337.084 455.464,337.084C455.208,337.484 455.016,337.844 454.888,338.164C454.76,338.484 454.696,338.804 454.696,339.124C454.696,339.412 454.756,339.72 454.876,340.048C454.996,340.376 455.192,340.748 455.464,341.164C455.464,341.164 458.065,345.027 459.126,346.603C459.213,346.732 459.222,346.899 459.148,347.036C459.075,347.174 458.932,347.26 458.776,347.26C458.133,347.26 457.269,347.26 456.865,347.26C456.725,347.26 456.593,347.19 456.515,347.073C455.9,346.155 453.232,342.172 453.232,342.172C452.912,341.66 452.672,341.156 452.512,340.66C452.473,340.539 452.439,340.419 452.41,340.3C452.261,339.556 452.252,338.812 452.409,338.068Z" style="fill:rgb(210,204,196);"/>
                </g>
                <g transform="matrix(0,-1.247983,6.561447,0,-949.014537,2040.226007)">
                    <path d="M452.409,338.068C452.557,337.449 452.823,336.833 453.208,336.22C453.208,336.22 455.792,332.288 456.395,331.37C456.473,331.251 456.606,331.18 456.748,331.18C457.145,331.18 457.984,331.18 458.613,331.18C458.768,331.18 458.911,331.265 458.984,331.402C459.058,331.539 459.05,331.706 458.963,331.835C457.938,333.373 455.464,337.084 455.464,337.084C455.208,337.484 455.016,337.844 454.888,338.164C454.76,338.484 454.696,338.804 454.696,339.124C454.696,339.412 454.756,339.72 454.876,340.048C454.996,340.376 455.192,340.748 455.464,341.164C455.464,341.164 458.065,345.027 459.126,346.603C459.213,346.732 459.222,346.899 459.148,347.036C459.075,347.174 458.932,347.26 458.776,347.26C458.133,347.26 457.269,347.26 456.865,347.26C456.725,347.26 456.593,347.19 456.515,347.073C455.9,346.155 453.232,342.172 453.232,342.172C452.912,341.66 452.672,341.156 452.512,340.66C452.473,340.539 452.439,340.419 452.41,340.3C452.261,339.556 452.252,338.812 452.409,338.068Z" style="fill:rgb(210,204,196);"/>
                </g>
            </g>
        </g>
    </g>
</svg>
